<svg xmlns="http://www.w3.org/2000/svg" viewBox="10.72651 5.38479 27.04847 38.86924" width="27.0485px"
    height="38.8692px">
    <g transform="matrix(0.6935503959655763, 0, 0, 0.6701592922210694, 0.4037015021398894, 3.236264086310031)" style="">
        <g>
            <circle cx="34" cy="22" r="17" fill="#cecece" />
            <path
                d="M 34.384 3.206 C 23.614 3.206 14.884 11.866 14.884 22.536 C 14.884 42.586 34.384 61.206 34.384 61.206 C 34.384 61.206 53.884 42.586 53.884 22.536 C 53.884 11.866 45.154 3.206 34.384 3.206 Z M 34.384 37.836 C 25.754 37.836 18.754 30.836 18.754 22.206 C 18.754 13.576 25.754 6.576 34.384 6.576 C 43.014 6.576 50.014 13.576 50.014 22.206 C 50.014 30.836 43.014 37.836 34.384 37.836 Z"
                style="fill: #a80d0d" />
            <path
                d="M 22.71 19.541 C 22.71 24.037 27.406 28.791 30.838 31.671 C 32.393 32.974 33.17 33.626 34.384 33.626 C 35.598 33.626 36.375 32.974 37.93 31.671 C 41.362 28.791 46.058 24.037 46.058 19.541 C 46.058 12.446 39.638 9.22 34.384 15.02 C 29.13 9.22 22.71 12.446 22.71 19.541 Z"
                style="fill: #a80d0d" />
            <path
                d="M 32.158 21.319 C 32.263 21.166 32.352 21.037 32.425 20.932 C 32.49 21.045 32.563 21.182 32.652 21.351 L 34.651 25.083 C 34.845 25.445 35.032 25.799 35.226 26.056 C 35.428 26.338 35.784 26.716 36.359 26.724 C 36.934 26.732 37.306 26.37 37.525 26.105 C 37.727 25.855 37.93 25.501 38.132 25.147 L 38.197 25.035 C 38.456 24.6 38.618 24.319 38.764 24.118 C 38.893 23.941 38.974 23.877 39.031 23.844 C 39.087 23.812 39.176 23.772 39.395 23.756 C 39.638 23.732 39.954 23.724 40.447 23.724 L 41.387 23.724 C 41.872 23.724 42.261 23.321 42.261 22.831 C 42.261 22.332 41.872 21.93 41.387 21.93 L 40.415 21.93 C 39.962 21.93 39.565 21.93 39.225 21.962 C 38.861 21.994 38.513 22.075 38.165 22.276 C 37.825 22.477 37.574 22.75 37.355 23.048 C 37.153 23.33 36.95 23.683 36.715 24.078 L 36.659 24.174 C 36.562 24.351 36.473 24.488 36.4 24.617 C 36.327 24.488 36.254 24.343 36.157 24.166 L 34.157 20.434 C 33.979 20.096 33.801 19.758 33.623 19.517 C 33.421 19.251 33.081 18.889 32.538 18.865 C 31.988 18.833 31.615 19.147 31.389 19.388 C 31.178 19.613 30.968 19.927 30.757 20.241 L 30.393 20.772 C 30.126 21.166 29.964 21.407 29.818 21.584 C 29.689 21.745 29.608 21.793 29.559 21.825 C 29.502 21.857 29.422 21.89 29.211 21.906 C 28.992 21.93 28.701 21.93 28.24 21.93 L 27.381 21.93 C 26.896 21.93 26.507 22.332 26.507 22.831 C 26.507 23.321 26.896 23.724 27.381 23.724 L 28.28 23.724 C 28.693 23.724 29.065 23.724 29.373 23.7 C 29.713 23.667 30.037 23.595 30.369 23.418 C 30.692 23.249 30.935 23.008 31.154 22.742 C 31.356 22.501 31.567 22.187 31.81 21.833 L 32.158 21.319 Z"
                fill="white" style="" />
        </g>
    </g>
</svg>