<svg xmlns="http://www.w3.org/2000/svg" xmlns:xlink="http://www.w3.org/1999/xlink" version="1.1" x="0px" y="0px"
    viewBox="0 0 168.292 351.41125" enable-background="new 0 0 168.292 281.129" xml:space="preserve">
    <path
        d="M85.345,14.565c-41.833,0-75.746,33.912-75.746,75.745c0,63.254,75.477,175.766,75.746,175.756  c0.322-0.012,75.746-113.502,75.746-175.756C161.091,48.477,127.18,14.565,85.345,14.565z M85.738,153.538  c-34.991,0-63.356-28.364-63.356-63.354S50.747,26.83,85.738,26.83c34.99,0,63.354,28.364,63.354,63.354  C149.091,125.173,120.728,153.538,85.738,153.538z" />
    <path d="M132.773,94.437c0.167,0.089,0.332,0.177,0.463,0.247C133.124,94.624,132.969,94.542,132.773,94.437z" />
    <path d="M132.067,94.061c0.131,0.07,0.25,0.133,0.361,0.191C132.286,94.176,132.155,94.108,132.067,94.061z" />
    <path d="M131.94,93.993c0.047,0.025,0.083,0.045,0.127,0.068C131.99,94.019,131.94,93.993,131.94,93.993z" />
    <path d="M133.236,94.684C133.659,94.911,133.536,94.844,133.236,94.684L133.236,94.684z" />
    <path d="M134.555,91.945C134.553,91.94,134.553,91.94,134.555,91.945L134.555,91.945z" />
    <path d="M136.059,95.499c0,0.001,0,0.002,0,0.003C136.059,95.5,136.059,95.5,136.059,95.499z" />
    <path d="M136.059,95.501C136.068,95.521,136.068,95.521,136.059,95.501L136.059,95.501z" />
    <circle cx="86" cy="93" r="70" fill="#cecece" />
    <path
        d="M135.61,94.446c-3.251-7.312-10.684-12.162-18.705-12.162c-1.391,0-2.762,0.138-4.102,0.41l-8.125-25.012  c-0.271-0.892-1.127-1.514-2.062-1.498H92.215c-1.168,0-2.115,0.948-2.115,2.116c0,1.169,0.947,2.117,2.115,2.117h8.902l3.207,9.875  H67.581l-1.521-2.328h3.863c2.736,0,2.736-4.232,0-4.232H57.51c-2.736,0-2.736,4.232,0,4.232h3.498l1.946,2.98  c-0.317,0.331-0.528,0.763-0.578,1.244l-3.11,10.427c-1.209-0.22-2.44-0.331-3.688-0.331c-11.156,0.001-20.459,9.303-20.459,20.457  c0,2.762,0.541,5.44,1.607,7.965c3.172,7.496,10.708,12.494,18.851,12.494c8.131,0,15.681-5.004,18.849-12.494  c0.856-2.026,1.375-4.152,1.545-6.342h9.896c0.88,0,1.636-0.538,1.955-1.304l18.245-27.405l2.7,8.312  c-2.366,1.027-4.494,2.476-6.326,4.309c-11.566,11.565-4.951,32.075,11.197,34.663c7.688,1.233,15.576-2.104,20.041-8.479  C137.85,108.499,138.288,101.073,135.61,94.446 M62.107,87.889c4.937,2.182,8.592,6.753,9.484,12.242H58.455L62.107,87.889z   M55.576,118.966c-8.947,0-16.226-7.277-16.226-16.226c0-8.945,7.278-16.225,16.226-16.225c0.839,0,1.663,0.064,2.468,0.188  l-4.489,15.045c-0.621,2.082,1.281,2.611,2.693,2.614H71.72C70.904,112.551,63.974,118.966,55.576,118.966 M75.869,100.131  c-0.233-1.842-0.717-3.633-1.444-5.354c-1.031-2.437-2.504-4.624-4.383-6.501c-1.878-1.879-4.065-3.354-6.501-4.383  c-0.069-0.031-0.142-0.061-0.213-0.09l2.516-8.432l16.161,24.759L75.869,100.131L75.869,100.131z M85.883,98.333l-15.54-23.808  h31.391L85.883,98.333z M116.905,118.966c-8.946,0-16.225-7.277-16.225-16.226c0-6.511,3.854-12.136,9.401-14.718l4.81,14.808  c0.816,2.509,4.953,1.548,4.026-1.308l-4.797-14.768c0.905-0.157,1.835-0.239,2.783-0.239c8.832,0,16.225,7.395,16.225,16.225  C133.129,111.573,125.737,118.966,116.905,118.966" />
</svg>