<svg xmlns="http://www.w3.org/2000/svg" xmlns:xlink="http://www.w3.org/1999/xlink" version="1.1" x="0px" y="0px"
    viewBox="0 0 64 80" enable-background="new 0 0 64 64" xml:space="preserve">
    <g>
        <g>
            <circle cx="31" cy="22" r="17" fill="#cecece" />
            <path fill="#0066cc"
                d="M32,3c-10.77,0-19.5,8.66-19.5,19.33C12.5,42.38,32,61,32,61s19.5-18.62,19.5-38.67C51.5,11.66,42.77,3,32,3z M32,37.63    c-8.63,0-15.63-7-15.63-15.63S23.37,6.37,32,6.37s15.63,7,15.63,15.63S40.63,37.63,32,37.63z" />
            <polygon fill="#0066cc" points="19.56,18.52 25.06,21.4 32.37,25.2 39.68,21.15 44.44,18.52 32.37,11.85   " />
            <path fill="#0066cc"
                d="M25.06,21.95v6.69c0,1.76,3.27,3.2,7.31,3.2s7.31-1.44,7.31-3.2v-6.91l-7.3,4.04L25.06,21.95z" />
        </g>
    </g>
</svg>